<svg width="980" height="551" xmlns="http://www.w3.org/2000/svg" xmlns:xlink="http://www.w3.org/1999/xlink">
<path fill="#ff595e" d="M 690.94 330.63 Q 690.94 330.63 690.94 330.64 690.93 330.64 690.93 330.64 690.93 330.65 690.93 330.64 Z"></path><path fill="#ff595e" d="M 587.05 456.78 Q 587.05 456.78 587.05 456.79 587.04 456.79 587.04 456.79 587.04 456.80 587.04 456.79 Z"></path><path fill="#ff595e" d="M 517.08 332.75 Q 517.08 332.75 517.08 332.76 517.08 332.76 517.07 332.76 517.07 332.77 517.08 332.76 Z"></path><path fill="#ff595e" d="M 932.64 492.83 Q 932.64 492.83 932.64 492.83 932.64 492.83 932.63 492.84 932.63 492.84 932.64 492.83 Z"></path><path fill="#ff595e" d="M 635.82 452.54 Q 635.82 452.54 635.81 452.55 635.81 452.55 635.80 452.55 635.80 452.56 635.81 452.55 Z"></path><path fill="#ff595e" d="M 933.12 471.06 Q 933.12 471.06 933.12 471.06 933.12 471.06 933.12 471.06 Z"></path>
</svg>